<?xml version="1.0" encoding="utf-8"?>
<!-- Generator: Adobe Illustrator 19.0.0, SVG Export Plug-In . SVG Version: 6.00 Build 0)  -->
<svg version="1.1" id="Layer_1" xmlns="http://www.w3.org/2000/svg" xmlns:xlink="http://www.w3.org/1999/xlink" x="0px" y="0px"
	 viewBox="0 0 500 500" style="enable-background:new 0 0 500 500;" xml:space="preserve">
<style type="text/css">
	.st0{fill:url(#XMLID_23_);}
	.st1{fill:url(#XMLID_24_);}
	.st2{fill:url(#XMLID_28_);}
	.st3{fill:url(#XMLID_29_);}
	.st4{fill:url(#XMLID_30_);}
	.st5{fill:url(#XMLID_31_);}
</style>
<g id="XMLID_1_">
	
		<linearGradient id="XMLID_23_" gradientUnits="userSpaceOnUse" x1="0.3089" y1="0.1131" x2="0.6739" y2="0.1131" gradientTransform="matrix(287.4846 273.9877 -273.9877 287.4846 159.0652 65.3639)">
		<stop  offset="0" style="stop-color:#FFCC00"/>
		<stop  offset="1" style="stop-color:#C19A00"/>
	</linearGradient>
	<polygon id="XMLID_3_" class="st0" points="250,91.6 158.8,249.6 341.3,249.6 	"/>
	
		<linearGradient id="XMLID_24_" gradientUnits="userSpaceOnUse" x1="0.1184" y1="-0.6661" x2="0.4834" y2="-0.6661" gradientTransform="matrix(287.4846 273.9877 -273.9877 287.4846 -90.9348 500.3638)">
		<stop  offset="0" style="stop-color:#FFCC00"/>
		<stop  offset="1" style="stop-color:#C19A00"/>
	</linearGradient>
	<polygon id="XMLID_4_" class="st1" points="158.8,250.4 67.5,408.4 250,408.4 	"/>
	
		<linearGradient id="XMLID_28_" gradientUnits="userSpaceOnUse" x1="-0.4603" y1="-0.1146" x2="-9.529802e-002" y2="-0.1146" gradientTransform="matrix(287.4846 273.9877 -273.9877 287.4846 409.0652 500.3638)">
		<stop  offset="0" style="stop-color:#FFCC00"/>
		<stop  offset="1" style="stop-color:#C19A00"/>
	</linearGradient>
	<polygon id="XMLID_5_" class="st2" points="341.3,250.4 250,408.4 432.5,408.4 	"/>
	
		<radialGradient id="XMLID_29_" cx="-6.359575e-002" cy="0.8462" r="0.365" gradientTransform="matrix(215.625 0 0 186.6407 271.5951 1.2427)" gradientUnits="userSpaceOnUse">
		<stop  offset="0" style="stop-color:#FFFFBA"/>
		<stop  offset="1" style="stop-color:#FFFF00"/>
	</radialGradient>
	<path id="XMLID_6_" class="st3" d="M171.3,243.1c52.5,0,104.9,0,157.4,0c-26.2-45.4-52.5-90.8-78.7-136.2
		C223.8,152.2,197.5,197.6,171.3,243.1z"/>
	
		<radialGradient id="XMLID_30_" cx="0.7879" cy="-1.031" r="0.365" gradientTransform="matrix(215.625 0 0 186.6407 -17.546 552.9844)" gradientUnits="userSpaceOnUse">
		<stop  offset="0" style="stop-color:#FFFFBA"/>
		<stop  offset="1" style="stop-color:#FFFF00"/>
	</radialGradient>
	<path id="XMLID_7_" class="st4" d="M80,401.1c52.5,0,104.9,0,157.4,0c-26.2-45.4-52.5-90.8-78.7-136.2
		C132.5,310.3,106.3,355.7,80,401.1z"/>
	
		<radialGradient id="XMLID_31_" cx="-0.7044" cy="-0.7095" r="0.365" gradientTransform="matrix(215.625 0 0 186.6407 489.2024 458.506)" gradientUnits="userSpaceOnUse">
		<stop  offset="0" style="stop-color:#FFFFBA"/>
		<stop  offset="1" style="stop-color:#FFFF00"/>
	</radialGradient>
	<path id="XMLID_8_" class="st5" d="M262.5,401.1c52.5,0,104.9,0,157.4,0c-26.2-45.4-52.5-90.8-78.7-136.2
		C315,310.3,288.8,355.7,262.5,401.1z"/>
</g>
</svg>
